<?xml version="1.0" standalone="no"?>
<!DOCTYPE svg PUBLIC "-//W3C//DTD SVG 20010904//EN"
 "http://www.w3.org/TR/2001/REC-SVG-20010904/DTD/svg10.dtd">
<svg version="1.0" xmlns="http://www.w3.org/2000/svg"
 width="205.000000pt" height="205.000000pt" viewBox="0 0 235.000000 205.000000"
 preserveAspectRatio="xMidYMid meet">

<g transform="translate(0.000000,205.000000) scale(0.100000,-0.100000)"
fill="#FFFFFF" stroke="none">
<path d="M1020 1270 l0 -600 75 0 75 0 2 298 3 297 93 3 92 3 0 64 0 65 -95 0
-95 0 0 235 0 235 -75 0 -75 0 0 -600z"/>
<path d="M270 1705 l0 -65 206 0 206 0 -7 -37 c-21 -114 -118 -275 -229 -381
-65 -62 -189 -152 -230 -168 -23 -9 -20 -13 45 -73 l56 -51 73 51 c95 67 217
185 280 269 93 125 164 300 188 463 l9 57 -299 0 -298 0 0 -65z"/>
<path d="M1590 780 l-403 -460 -56 50 c-31 27 -132 122 -226 209 l-170 160
-52 -57 c-29 -31 -51 -60 -50 -64 1 -3 128 -124 282 -267 l280 -261 45 48
c110 116 871 994 868 1001 -3 8 -106 101 -112 101 -1 0 -184 -207 -406 -460z"/>
</g>
</svg>
