<?xml version="1.0" standalone="no"?>
<!DOCTYPE svg PUBLIC "-//W3C//DTD SVG 20010904//EN"
 "http://www.w3.org/TR/2001/REC-SVG-20010904/DTD/svg10.dtd">
<svg version="1.0" xmlns="http://www.w3.org/2000/svg"
 width="516.000000pt" height="484.000000pt" viewBox="0 0 516.000000 516.000000"
 preserveAspectRatio="xMidYMid meet">

<g transform="translate(0.000000,516.000000) scale(0.100000,-0.100000)"
fill="#FFFFFF" stroke="none">
<path d="M1115 4609 c-196 -46 -355 -137 -491 -282 -122 -131 -200 -281 -230
-447 -17 -97 -21 -2731 -3 -2857 26 -189 126 -380 271 -519 113 -109 241 -180
407 -227 76 -22 78 -22 1443 -25 1505 -3 1487 -4 1645 58 231 89 433 285 523
509 68 169 64 77 67 1546 3 855 0 1366 -6 1430 -14 130 -33 201 -82 304 -107
227 -295 393 -541 480 l-103 36 -1430 2 c-850 1 -1446 -3 -1470 -8z m2860
-364 c95 -25 163 -63 240 -136 78 -74 123 -147 152 -245 16 -55 18 -154 21
-1379 2 -897 -1 -1342 -8 -1390 -12 -80 -38 -165 -50 -165 -4 0 -397 389 -873
864 -501 500 -890 881 -924 904 -85 57 -170 98 -270 129 -79 24 -104 27 -243
27 -177 1 -250 -15 -395 -84 -125 -60 -197 -121 -546 -467 -179 -178 -329
-323 -332 -323 -4 0 -7 409 -7 909 l0 910 25 79 c58 182 197 318 377 366 45
12 269 15 1413 15 1191 1 1368 -1 1420 -14z m-1790 -1769 c41 -13 96 -38 122
-54 42 -27 1753 -1729 1761 -1751 4 -11 -70 -38 -139 -51 -37 -7 -512 -9
-1410 -8 l-1354 3 -60 24 c-167 67 -284 189 -340 355 -21 62 -26 101 -31 223
-8 243 -42 187 351 584 608 616 627 632 775 680 85 28 230 25 325 -5z"/>
<path d="M3135 3966 c-207 -58 -365 -202 -441 -401 -21 -56 -28 -92 -31 -180
-9 -202 45 -344 182 -480 130 -130 264 -187 440 -187 180 -1 323 59 450 186
127 128 188 273 188 446 0 268 -155 491 -412 594 -68 27 -89 30 -201 33 -85 2
-141 -2 -175 -11z m220 -351 c196 -32 277 -291 141 -452 -67 -79 -217 -111
-316 -66 -170 76 -215 307 -87 441 51 53 155 97 207 87 8 -2 33 -6 55 -10z"/>
</g>
</svg>
