<?xml version="1.0" standalone="no"?>
<!DOCTYPE svg PUBLIC "-//W3C//DTD SVG 20010904//EN"
 "http://www.w3.org/TR/2001/REC-SVG-20010904/DTD/svg10.dtd">
<svg version="1.0" xmlns="http://www.w3.org/2000/svg"
 width="152.000000pt" height="148.000000pt" viewBox="0 0 152.000000 148.000000"
 preserveAspectRatio="xMidYMid meet">

<g transform="translate(0.000000,148.000000) scale(0.100000,-0.100000)"
fill="#FFFFFF" stroke="none">
<path d="M670 1368 c-49 -25 -90 -89 -90 -140 0 -24 -7 -32 -42 -47 -24 -11
-58 -30 -76 -44 -32 -24 -34 -24 -65 -9 -18 9 -53 17 -79 17 -53 0 -89 -22
-126 -76 -20 -29 -23 -43 -20 -93 4 -55 8 -62 49 -100 l44 -41 0 -85 1 -85
-45 -41 c-41 -38 -45 -44 -49 -100 -3 -50 0 -64 20 -93 37 -54 73 -76 126 -76
26 0 61 8 79 17 31 15 33 15 65 -9 18 -14 52 -33 76 -44 35 -15 42 -23 42 -47
0 -51 41 -115 90 -140 56 -28 84 -28 140 1 49 24 90 88 90 139 0 24 7 32 43
47 23 11 57 30 75 44 32 24 34 24 65 9 18 -9 53 -17 80 -16 54 1 89 21 125 75
20 29 23 43 20 93 -4 56 -8 62 -49 100 l-45 41 1 86 c0 85 0 86 33 114 88 74
83 189 -11 259 -35 26 -108 28 -154 4 -31 -15 -33 -15 -65 9 -18 14 -52 33
-75 44 -36 15 -43 23 -43 47 0 51 -41 115 -90 140 -24 12 -56 22 -70 22 -14 0
-46 -10 -70 -22z m108 -100 c7 -7 12 -31 12 -54 0 -71 12 -88 77 -112 32 -12
80 -40 107 -62 54 -45 77 -49 124 -20 43 27 88 26 102 -1 19 -34 4 -64 -47
-95 l-48 -30 0 -144 1 -144 44 -28 c54 -34 67 -59 52 -93 -15 -31 -58 -34
-104 -5 -47 28 -63 25 -129 -24 -32 -24 -82 -52 -109 -61 -57 -19 -70 -39 -70
-109 0 -48 -13 -66 -50 -66 -37 0 -50 18 -50 66 0 71 -12 88 -77 112 -32 12
-80 40 -107 62 -54 45 -77 49 -124 20 -46 -29 -89 -26 -104 5 -15 34 -2 59 52
93 l44 28 1 144 0 144 -48 30 c-51 31 -66 61 -47 95 14 27 59 28 102 1 47 -29
70 -25 124 20 27 22 75 50 107 62 65 24 77 41 77 112 0 23 5 47 12 54 15 15
61 15 76 0z"/>
<path d="M655 941 c-168 -78 -164 -314 7 -385 134 -56 288 48 288 194 0 150
-160 253 -295 191z m135 -96 c32 -17 60 -61 60 -95 0 -53 -57 -110 -110 -110
-53 0 -110 57 -110 110 0 33 28 78 58 94 35 20 66 20 102 1z"/>
</g>
</svg>
