
<svg version="1.0" xmlns="http://www.w3.org/2000/svg"
 width="165.000000pt" height="165.000000pt" viewBox="0 0 165.000000 165.000000"
 preserveAspectRatio="xMidYMid meet">

<g transform="translate(0.000000,142.000000) scale(0.100000,-0.100000)"
fill="#FFFFFF" >
<path d="M284 1332 c-62 -22 -101 -51 -136 -103 -44 -66 -50 -121 -46 -446 3
-325 6 -343 66 -407 83 -88 141 -99 508 -94 258 3 282 5 324 24 65 30 105 68
134 126 l26 52 0 330 c0 326 -1 332 -24 381 -12 28 -40 65 -61 84 -75 65 -77
66 -425 68 -281 3 -320 1 -366 -15z m701 -117 c75 -43 76 -51 73 -409 -3 -300
-4 -316 -24 -342 -11 -15 -33 -37 -48 -48 -26 -20 -42 -21 -342 -24 -304 -3
-316 -2 -352 18 -21 12 -49 37 -62 57 l-25 37 0 305 c0 344 2 354 68 402 l40
29 315 0 315 0 42 -25z"/>
<path d="M1297 1068 c-15 -12 -17 -53 -19 -393 -3 -363 -4 -382 -24 -415 -11
-19 -35 -45 -54 -57 -33 -23 -36 -23 -404 -23 -278 0 -377 -3 -396 -13 -30
-15 -38 -58 -14 -81 15 -15 53 -17 403 -14 367 3 388 4 431 24 58 26 108 76
134 134 20 43 21 64 24 429 3 350 2 385 -14 402 -20 22 -43 24 -67 7z"/>
</g>
</svg>
